<svg width="32" height="32" viewBox="0 0 32 32" fill="none" xmlns="http://www.w3.org/2000/svg">
<path d="M24.3215 10.4588H21.6079C21.2918 10.4588 20.991 10.3231 20.7817 10.087L19.6809 8.84345C19.517 8.65785 19.2809 8.55225 19.0338 8.55225C18.7868 8.55225 18.5506 8.65849 18.3868 8.84345L17.4428 9.91033C17.1337 10.2591 16.6902 10.4594 16.2242 10.4594H1.37048C0.947443 11.6652 0.671603 12.9388 0.561523 14.2598H14.5839C14.8303 14.2598 15.0665 14.1593 15.2367 13.9814L16.5423 12.6188C16.7055 12.4486 16.9308 12.3526 17.1663 12.3526H17.2201C17.4678 12.3526 17.7033 12.4588 17.8671 12.6444L18.9673 13.8879C19.1766 14.1247 19.4774 14.2598 19.7935 14.2598H31.2393C31.1292 12.9382 30.8534 11.6646 30.4303 10.4594H24.3209L24.3215 10.4588Z" fill="black"/>
<path d="M9.04702 22.2508C9.29342 22.2508 9.52958 22.1503 9.69982 21.9724L11.0054 20.6098C11.1686 20.4396 11.3939 20.3436 11.6294 20.3436H11.6832C11.9309 20.3436 12.1664 20.4498 12.3302 20.6348L13.4304 21.8783C13.6397 22.1151 13.9405 22.2502 14.2566 22.2502H29.7677C30.3488 21.0495 30.7744 19.7612 31.0278 18.4114H16.1395C15.8233 18.4114 15.5225 18.2758 15.3133 18.0396L14.2131 16.7961C14.0493 16.6105 13.8131 16.5049 13.5661 16.5049C13.319 16.5049 13.0829 16.6111 12.919 16.7961L11.975 17.863C11.6659 18.2118 11.2224 18.4121 10.7558 18.4121H0.772461C1.0259 19.7618 1.45214 21.0502 2.03262 22.2508H9.04638H9.04702Z" fill="black"/>
<path d="M20.0516 6.30537C20.298 6.30537 20.5342 6.20489 20.7044 6.02697L22.01 4.66441C22.1732 4.49417 22.3985 4.39817 22.634 4.39817H22.6878C22.9355 4.39817 23.171 4.50441 23.3348 4.69001L24.435 5.93353C24.6443 6.17033 24.9451 6.30537 25.2612 6.30537H28.211C25.402 2.57161 20.9342 0.15625 15.9012 0.15625C10.8683 0.15625 6.40042 2.57161 3.59082 6.30537H20.0516Z" fill="black"/>
<path d="M14.1258 26.055H10.0919C9.77575 26.055 9.47495 25.9193 9.26567 25.6832L8.16551 24.4396C8.00167 24.254 7.76551 24.1484 7.51847 24.1484C7.27143 24.1484 7.03527 24.2547 6.87143 24.4396L5.92743 25.5065C5.61831 25.8553 5.17479 26.0556 4.70823 26.0556H4.64551C7.45575 29.0668 11.4577 30.9516 15.9012 30.9516C20.3447 30.9516 24.346 29.0668 27.1569 26.0556H14.1258V26.055Z" fill="black"/>
</svg>
