<svg width="29" height="29" viewBox="0 0 29 29" fill="none" xmlns="http://www.w3.org/2000/svg">
<g clip-path="url(#clip0_74_200)">
<path d="M22.0413 9.47831H19.5821C19.2956 9.47831 19.023 9.35535 18.8333 9.14133L17.8357 8.01439C17.6872 7.84619 17.4732 7.75049 17.2493 7.75049C17.0254 7.75049 16.8114 7.84677 16.6629 8.01439L15.8074 8.98125C15.5273 9.29735 15.1254 9.47889 14.7031 9.47889H1.24191C0.858529 10.5716 0.608549 11.7258 0.508789 12.9229H13.2166C13.4399 12.9229 13.6539 12.8319 13.8082 12.6706L14.9914 11.4358C15.1393 11.2815 15.3434 11.1945 15.5569 11.1945H15.6056C15.8301 11.1945 16.0435 11.2908 16.192 11.459L17.189 12.5859C17.3787 12.8005 17.6513 12.9229 17.9378 12.9229H28.3105C28.2107 11.7252 27.9608 10.571 27.5774 9.47889H22.0407L22.0413 9.47831Z" fill="black"/>
<path d="M8.19877 20.1648C8.42207 20.1648 8.63609 20.0737 8.79037 19.9125L9.97357 18.6776C10.1215 18.5234 10.3256 18.4364 10.5391 18.4364H10.5878C10.8123 18.4364 11.0257 18.5326 11.1742 18.7003L12.1712 19.8272C12.3609 20.0418 12.6335 20.1642 12.92 20.1642H26.9769C27.5035 19.0761 27.8892 17.9086 28.1189 16.6853H14.6263C14.3398 16.6853 14.0672 16.5624 13.8776 16.3484L12.8805 15.2214C12.7321 15.0532 12.518 14.9575 12.2942 14.9575C12.0703 14.9575 11.8563 15.0538 11.7078 15.2214L10.8523 16.1883C10.5721 16.5044 10.1702 16.6859 9.74737 16.6859H0.699951C0.929631 17.9091 1.31591 19.0767 1.84197 20.1648H8.19819H8.19877Z" fill="black"/>
<path d="M18.1715 5.71424C18.3948 5.71424 18.6088 5.62318 18.7631 5.46194L19.9463 4.22712C20.0942 4.07284 20.2984 3.98584 20.5118 3.98584H20.5605C20.785 3.98584 20.9984 4.08212 21.1469 4.25032L22.1439 5.37726C22.3336 5.59186 22.6062 5.71424 22.8927 5.71424H25.5659C23.0203 2.33052 18.9713 0.141602 14.4102 0.141602C9.84909 0.141602 5.80011 2.33052 3.25391 5.71424H18.1715Z" fill="black"/>
<path d="M12.8017 23.6126H9.146C8.85948 23.6126 8.58688 23.4896 8.39722 23.2756L7.40021 22.1487C7.25173 21.9805 7.03771 21.8848 6.81383 21.8848C6.58995 21.8848 6.37592 21.981 6.22744 22.1487L5.37194 23.1155C5.0918 23.4316 4.68987 23.6132 4.26705 23.6132H4.21021C6.75698 26.3421 10.3837 28.0502 14.4107 28.0502C18.4376 28.0502 22.0638 26.3421 24.6111 23.6132H12.8017V23.6126Z" fill="black"/>
</g>
<defs>
<clipPath id="clip0_74_200">
<rect width="29" height="29" fill="white"/>
</clipPath>
</defs>
</svg>
