<svg width="36" height="37" viewBox="0 0 36 37" fill="none" xmlns="http://www.w3.org/2000/svg">
<g clip-path="url(#clip0_44_520)">
<path d="M27.3618 12.2665H24.309C23.9534 12.2665 23.615 12.1138 23.3795 11.8481L22.1411 10.4492C21.9568 10.2404 21.6911 10.1216 21.4132 10.1216C21.1353 10.1216 20.8696 10.2411 20.6853 10.4492L19.6233 11.6494C19.2755 12.0418 18.7766 12.2672 18.2524 12.2672H1.54192C1.066 13.6237 0.755676 15.0565 0.631836 16.5425H16.407C16.6842 16.5425 16.9499 16.4295 17.1414 16.2293L18.6102 14.6965C18.7938 14.5049 19.0473 14.3969 19.3122 14.3969H19.3727C19.6514 14.3969 19.9163 14.5165 20.1006 14.7253L21.3383 16.1242C21.5738 16.3906 21.9122 16.5425 22.2678 16.5425H35.1443C35.0205 15.0557 34.7102 13.6229 34.2342 12.2672H27.3611L27.3618 12.2665Z" fill="black"/>
<path d="M10.178 25.532C10.4552 25.532 10.7209 25.419 10.9124 25.2188L12.3812 23.686C12.5648 23.4944 12.8183 23.3864 13.0832 23.3864H13.1437C13.4223 23.3864 13.6873 23.506 13.8716 23.714L15.1093 25.113C15.3447 25.3794 15.6831 25.5313 16.0388 25.5313H33.4887C34.1425 24.1806 34.6213 22.7312 34.9064 21.2127H18.1571C17.8014 21.2127 17.463 21.0601 17.2275 20.7944L15.9899 19.3955C15.8055 19.1867 15.5399 19.0679 15.2619 19.0679C14.984 19.0679 14.7183 19.1874 14.534 19.3955L13.472 20.5957C13.1243 20.9881 12.6253 21.2135 12.1004 21.2135H0.869141C1.15426 22.732 1.63378 24.1813 2.28682 25.532H10.1773H10.178Z" fill="black"/>
<path d="M22.5575 7.59354C22.8347 7.59354 23.1003 7.4805 23.2919 7.28034L24.7607 5.74746C24.9443 5.55594 25.1977 5.44794 25.4627 5.44794H25.5231C25.8018 5.44794 26.0667 5.56746 26.2511 5.77626L27.4887 7.17522C27.7242 7.44162 28.0626 7.59354 28.4183 7.59354H31.7367C28.5767 3.39306 23.5503 0.675781 17.8883 0.675781C12.2262 0.675781 7.19986 3.39306 4.03906 7.59354H22.5575Z" fill="black"/>
<path d="M15.8919 29.8119H11.3538C10.9981 29.8119 10.6597 29.6592 10.4242 29.3936L9.18656 27.9946C9.00224 27.7858 8.73656 27.667 8.45864 27.667C8.18072 27.667 7.91504 27.7865 7.73072 27.9946L6.66872 29.1948C6.32096 29.5872 5.822 29.8126 5.29712 29.8126H5.22656C8.38808 33.2002 12.8902 35.3206 17.8892 35.3206C22.8882 35.3206 27.3896 33.2002 30.5518 29.8126H15.8919V29.8119Z" fill="black"/>
</g>
<defs>
<clipPath id="clip0_44_520">
<rect width="36" height="36" fill="white" transform="translate(0 0.5)"/>
</clipPath>
</defs>
</svg>
