<svg width="28" height="29" viewBox="0 0 28 29" fill="none" xmlns="http://www.w3.org/2000/svg">
<mask id="mask0_43_1842" style="mask-type:luminance" maskUnits="userSpaceOnUse" x="1" y="1" width="26" height="27">
<path d="M25.9582 12.1665H13.9998V17.1248H20.8832C20.2415 20.2748 17.5582 22.0832 13.9998 22.0832C9.79984 22.0832 6.4165 18.6998 6.4165 14.4998C6.4165 10.2998 9.79984 6.9165 13.9998 6.9165C15.8082 6.9165 17.4415 7.55817 18.7248 8.60817L22.4582 4.87484C20.1832 2.8915 17.2665 1.6665 13.9998 1.6665C6.88317 1.6665 1.1665 7.38317 1.1665 14.4998C1.1665 21.6165 6.88317 27.3332 13.9998 27.3332C20.4165 27.3332 26.2498 22.6665 26.2498 14.4998C26.2498 13.7415 26.1332 12.9248 25.9582 12.1665Z" fill="white"/>
</mask>
<g mask="url(#mask0_43_1842)">
<path d="M0 22.0832V6.9165L9.91667 14.4998L0 22.0832Z" fill="#FBBC05"/>
</g>
<mask id="mask1_43_1842" style="mask-type:luminance" maskUnits="userSpaceOnUse" x="1" y="1" width="26" height="27">
<path d="M25.9582 12.1665H13.9998V17.1248H20.8832C20.2415 20.2748 17.5582 22.0832 13.9998 22.0832C9.79984 22.0832 6.4165 18.6998 6.4165 14.4998C6.4165 10.2998 9.79984 6.9165 13.9998 6.9165C15.8082 6.9165 17.4415 7.55817 18.7248 8.60817L22.4582 4.87484C20.1832 2.8915 17.2665 1.6665 13.9998 1.6665C6.88317 1.6665 1.1665 7.38317 1.1665 14.4998C1.1665 21.6165 6.88317 27.3332 13.9998 27.3332C20.4165 27.3332 26.2498 22.6665 26.2498 14.4998C26.2498 13.7415 26.1332 12.9248 25.9582 12.1665Z" fill="white"/>
</mask>
<g mask="url(#mask1_43_1842)">
<path d="M0 6.91667L9.91667 14.5L14 10.9417L28 8.66667V0.5H0V6.91667Z" fill="#EA4335"/>
</g>
<mask id="mask2_43_1842" style="mask-type:luminance" maskUnits="userSpaceOnUse" x="1" y="1" width="26" height="27">
<path d="M25.9582 12.1665H13.9998V17.1248H20.8832C20.2415 20.2748 17.5582 22.0832 13.9998 22.0832C9.79984 22.0832 6.4165 18.6998 6.4165 14.4998C6.4165 10.2998 9.79984 6.9165 13.9998 6.9165C15.8082 6.9165 17.4415 7.55817 18.7248 8.60817L22.4582 4.87484C20.1832 2.8915 17.2665 1.6665 13.9998 1.6665C6.88317 1.6665 1.1665 7.38317 1.1665 14.4998C1.1665 21.6165 6.88317 27.3332 13.9998 27.3332C20.4165 27.3332 26.2498 22.6665 26.2498 14.4998C26.2498 13.7415 26.1332 12.9248 25.9582 12.1665Z" fill="white"/>
</mask>
<g mask="url(#mask2_43_1842)">
<path d="M0 22.0833L17.5 8.66667L22.1083 9.25L28 0.5V28.5H0V22.0833Z" fill="#34A853"/>
</g>
<mask id="mask3_43_1842" style="mask-type:luminance" maskUnits="userSpaceOnUse" x="1" y="1" width="26" height="27">
<path d="M25.9582 12.1665H13.9998V17.1248H20.8832C20.2415 20.2748 17.5582 22.0832 13.9998 22.0832C9.79984 22.0832 6.4165 18.6998 6.4165 14.4998C6.4165 10.2998 9.79984 6.9165 13.9998 6.9165C15.8082 6.9165 17.4415 7.55817 18.7248 8.60817L22.4582 4.87484C20.1832 2.8915 17.2665 1.6665 13.9998 1.6665C6.88317 1.6665 1.1665 7.38317 1.1665 14.4998C1.1665 21.6165 6.88317 27.3332 13.9998 27.3332C20.4165 27.3332 26.2498 22.6665 26.2498 14.4998C26.2498 13.7415 26.1332 12.9248 25.9582 12.1665Z" fill="white"/>
</mask>
<g mask="url(#mask3_43_1842)">
<path d="M27.9997 28.4998L9.91634 14.4998L7.58301 12.7498L27.9997 6.9165V28.4998Z" fill="#4285F4"/>
</g>
</svg>
