<svg width="132" height="25" viewBox="0 0 132 25" fill="none" xmlns="http://www.w3.org/2000/svg">
<path fill-rule="evenodd" clip-rule="evenodd" d="M5.97491 17.2435C6.03249 17.4246 6.09375 17.6032 6.15871 17.7791C6.75373 19.3262 7.59866 20.6352 8.6935 21.7062C9.81214 22.7773 11.1688 23.5984 12.7634 24.1696C14.3581 24.717 16.167 24.9908 18.19 24.9908C19.6895 24.9908 21.1532 24.8241 22.5813 24.4909C24.0093 24.1577 25.3065 23.6341 26.4727 22.9201C27.639 22.1823 28.6148 21.254 29.4002 20.1354C30.2095 18.9929 30.745 17.6244 31.0068 16.0297H26.2585C26.0443 16.8152 25.6635 17.4935 25.1161 18.0647C24.5687 18.6359 23.9141 19.1119 23.1525 19.4928C22.4147 19.8498 21.6174 20.1235 20.7605 20.3139C19.9275 20.4805 19.1064 20.5638 18.2971 20.5638C16.8691 20.5638 15.6314 20.3615 14.5842 19.9569C13.5608 19.5523 12.7158 18.9929 12.0494 18.2789C11.6744 17.8623 11.3521 17.401 11.0825 16.8952L5.97491 17.2435ZM32.7751 15.4162V24.9908H52.0181V20.5995H37.4877V15.0949L32.7751 15.4162ZM57.5847 13.7246L53.5128 24.9908H58.5824L60.5817 19.4214H73.8625L75.7547 24.9908H80.86L76.4487 12.4384L71.6726 12.7641L72.5773 15.4228H61.8669L62.5892 13.3834L57.5847 13.7246ZM82.3524 12.0359V24.9908H86.9936V11.7195L82.3524 12.0359ZM91.5729 11.4072L97.0257 24.9908H101.774H106.415V10.3953L101.774 10.7117V24.9908L96.1753 11.0934L91.5729 11.4072ZM108.937 10.2233V24.9908H113.649V13.6735H117.969L126.323 24.9908H132L121.789 11.0673L123.47 9.23242L116.885 9.68143L113.649 13.3164V9.90202L108.937 10.2233Z" fill="black"/>
<path fill-rule="evenodd" clip-rule="evenodd" d="M8.78057 16.8953L3.67302 17.2435C3.22434 15.8316 3 14.2608 3 12.5311C3 10.5795 3.30941 8.83011 3.92823 7.28306C4.54705 5.736 5.42769 4.42696 6.57013 3.35592C7.71257 2.26108 9.08112 1.42805 10.6758 0.85683C12.2942 0.28561 14.1031 0 16.1024 0C17.6018 0 19.0537 0.166606 20.4579 0.499818C21.886 0.809229 23.1712 1.32095 24.3137 2.03497C25.4561 2.749 26.4081 3.67723 27.1698 4.81967C27.9552 5.93831 28.455 7.29496 28.6692 8.88961H23.8495C23.6829 8.17559 23.3378 7.54487 22.8142 6.99745C22.3144 6.42623 21.7075 5.96211 20.9934 5.6051C20.2794 5.22428 19.494 4.93868 18.6372 4.74827C17.7803 4.53406 16.8997 4.42696 15.9953 4.42696C14.591 4.42696 13.3653 4.62926 12.318 5.03388C11.2946 5.41469 10.4497 5.96211 9.78324 6.67614C9.11682 7.39016 8.617 8.24699 8.28379 9.24663C7.97438 10.2225 7.81967 11.3054 7.81967 12.4954C7.81967 13.6617 7.97438 14.7446 8.28379 15.7443C8.42255 16.1506 8.58815 16.5343 8.78057 16.8953ZM35.1858 15.0949L30.4732 15.4163V0H35.1858V15.0949ZM84.6917 11.7195L80.0506 12.036V0H84.6917V11.7195ZM89.271 11.4073L84.6917 0H89.4043L93.8734 11.0935L89.271 11.4073ZM121.168 9.23249L129.627 0H123.2L114.583 9.68149L121.168 9.23249ZM111.347 9.9021L106.635 10.2234V0H111.347V9.9021ZM104.113 10.3953L99.4721 10.7118V0H104.113V10.3953ZM74.1468 12.4385L69.3707 12.7642L65.0273 0H69.7756L74.1468 12.4385ZM60.2873 13.3835L55.2829 13.7247L60.2433 0H65.0273L60.2873 13.3835Z" fill="black"/>
</svg>
