<svg width="132" height="25" viewBox="0 0 132 25" fill="none" xmlns="http://www.w3.org/2000/svg">
<path fill-rule="evenodd" clip-rule="evenodd" d="M5.9751 17.2435C6.03267 17.4246 6.09393 17.6032 6.15889 17.7791C6.75391 19.3262 7.59884 20.6352 8.69368 21.7062C9.81232 22.7773 11.169 23.5984 12.7636 24.1696C14.3583 24.717 16.1671 24.9908 18.1902 24.9908C19.6897 24.9908 21.1534 24.8241 22.5815 24.4909C24.0095 24.1577 25.3067 23.6341 26.4729 22.9201C27.6392 22.1823 28.615 21.254 29.4004 20.1354C30.2096 18.9929 30.7452 17.6244 31.007 16.0297H26.2587C26.0445 16.8152 25.6637 17.4935 25.1163 18.0647C24.5688 18.6359 23.9143 19.1119 23.1527 19.4928C22.4149 19.8498 21.6175 20.1235 20.7607 20.3139C19.9277 20.4805 19.1065 20.5638 18.2973 20.5638C16.8693 20.5638 15.6316 20.3615 14.5844 19.9569C13.561 19.5523 12.716 18.9929 12.0496 18.2789C11.6746 17.8623 11.3523 17.401 11.0827 16.8952L5.9751 17.2435ZM32.7753 15.4162V24.9908H52.0183V20.5995H37.4879V15.0949L32.7753 15.4162ZM57.5849 13.7246L53.513 24.9908H58.5826L60.5818 19.4214H73.8627L75.7549 24.9908H80.8602L76.4489 12.4384L71.6728 12.7641L72.5775 15.4228H61.8671L62.5894 13.3834L57.5849 13.7246ZM82.3526 12.0359V24.9908H86.9938V11.7195L82.3526 12.0359ZM91.573 11.4072L97.0259 24.9908H101.774H106.415V10.3953L101.774 10.7117V24.9908L96.1755 11.0934L91.573 11.4072ZM108.937 10.2233V24.9908H113.65V13.6735H117.969L126.323 24.9908H132L121.789 11.0673L123.47 9.23242L116.885 9.68143L113.65 13.3164V9.90202L108.937 10.2233Z" fill="black"/>
<path fill-rule="evenodd" clip-rule="evenodd" d="M8.78057 16.8953L3.67302 17.2435C3.22434 15.8316 3 14.2608 3 12.5311C3 10.5795 3.30941 8.83011 3.92823 7.28306C4.54705 5.736 5.42769 4.42696 6.57013 3.35592C7.71257 2.26108 9.08112 1.42805 10.6758 0.85683C12.2942 0.28561 14.1031 0 16.1024 0C17.6018 0 19.0537 0.166606 20.4579 0.499818C21.886 0.809229 23.1712 1.32095 24.3137 2.03497C25.4561 2.749 26.4081 3.67723 27.1698 4.81967C27.9552 5.93831 28.455 7.29496 28.6692 8.88961H23.8495C23.6829 8.17559 23.3378 7.54487 22.8142 6.99745C22.3144 6.42623 21.7075 5.96211 20.9934 5.6051C20.2794 5.22428 19.494 4.93868 18.6372 4.74827C17.7803 4.53406 16.8997 4.42696 15.9953 4.42696C14.591 4.42696 13.3653 4.62926 12.318 5.03388C11.2946 5.41469 10.4497 5.96211 9.78324 6.67614C9.11682 7.39016 8.617 8.24699 8.28379 9.24663C7.97438 10.2225 7.81967 11.3054 7.81967 12.4954C7.81967 13.6617 7.97438 14.7446 8.28379 15.7443C8.42255 16.1506 8.58815 16.5343 8.78057 16.8953ZM35.1858 15.0949L30.4732 15.4163V0H35.1858V15.0949ZM84.6917 11.7195L80.0506 12.036V0H84.6917V11.7195ZM89.271 11.4073L84.6917 0H89.4043L93.8734 11.0935L89.271 11.4073ZM121.168 9.23249L129.627 0H123.2L114.583 9.68149L121.168 9.23249ZM111.347 9.9021L106.635 10.2234V0H111.347V9.9021ZM104.113 10.3953L99.4721 10.7118V0H104.113V10.3953ZM74.1468 12.4385L69.3707 12.7642L65.0273 0H69.7756L74.1468 12.4385ZM60.2873 13.3835L55.2829 13.7247L60.2433 0H65.0273L60.2873 13.3835Z" fill="black"/>
</svg>
