<svg width="628" height="119" viewBox="0 0 628 119" fill="none" xmlns="http://www.w3.org/2000/svg">
<path fill-rule="evenodd" clip-rule="evenodd" d="M28.4263 82.0798C28.7002 82.9422 28.9916 83.792 29.3007 84.6295C32.1315 91.9934 36.1514 98.2245 41.3601 103.323C46.6822 108.421 53.1365 112.329 60.7232 115.048C68.3099 117.654 76.9157 118.957 86.5406 118.957C93.6744 118.957 100.638 118.164 107.432 116.578C114.226 114.992 120.398 112.499 125.946 109.101C131.495 105.588 136.137 101.17 139.874 95.8454C143.724 90.4073 146.272 83.8931 147.517 76.3025H124.927C123.908 80.0411 122.096 83.2699 119.492 85.989C116.887 88.708 113.773 90.9738 110.15 92.7865C106.64 94.4858 102.846 95.7887 98.7699 96.695C94.8067 97.4881 90.9001 97.8846 87.0502 97.8846C80.2561 97.8846 74.3679 96.9216 69.3856 94.9957C64.5166 93.0697 60.4967 90.4073 57.3262 87.0086C55.5421 85.0253 54.0087 82.8298 52.7259 80.4222L28.4263 82.0798ZM155.93 73.3819V118.957H247.48V98.0546H178.351V71.8525L155.93 73.3819ZM273.964 65.3301L254.591 118.957H278.71L288.222 92.4466H351.407L360.409 118.957H384.698L363.711 59.2079L340.988 60.7579L345.292 73.4135H294.337L297.773 63.7059L273.964 65.3301ZM391.798 57.2918V118.957H413.879V55.7856L391.798 57.2918ZM435.665 54.2994L461.607 118.957H484.197H506.278V49.4824L484.197 50.9887V118.957L457.561 52.8057L435.665 54.2994ZM518.275 48.664V118.957H540.696V65.0866H561.248L600.993 118.957H627.999L579.422 52.6811L587.419 43.9473L556.088 46.0845L540.696 63.3872V47.1346L518.275 48.664Z" fill="black"/>
<path fill-rule="evenodd" clip-rule="evenodd" d="M41.7742 80.4216L17.4746 82.0792C15.34 75.3586 14.2727 67.8816 14.2727 59.6482C14.2727 50.3583 15.7448 42.0313 18.6888 34.6674C21.6329 27.3034 25.8226 21.0723 31.2579 15.9742C36.6931 10.7627 43.2041 6.79752 50.7908 4.07851C58.4907 1.3595 67.0965 0 76.6082 0C83.742 0 90.6492 0.793044 97.3301 2.37913C104.124 3.85193 110.239 6.28771 115.674 9.68647C121.109 13.0852 125.639 17.5036 129.262 22.9416C132.999 28.2664 135.377 34.724 136.396 42.3146H113.466C112.673 38.9158 111.031 35.9136 108.54 33.3078C106.162 30.5888 103.275 28.3796 99.8778 26.6803C96.4808 24.8676 92.7441 23.5081 88.6676 22.6018C84.5912 21.5821 80.4015 21.0723 76.0986 21.0723C69.4178 21.0723 63.5862 22.0353 58.6039 23.9613C53.7349 25.7739 49.715 28.3796 46.5445 31.7784C43.3739 35.1772 40.996 39.2557 39.4107 44.0139C37.9387 48.6589 37.2027 53.8137 37.2027 59.4783C37.2027 65.0296 37.9387 70.1844 39.4107 74.9427C40.0709 76.877 40.8587 78.7034 41.7742 80.4216ZM167.399 71.8519L144.979 73.3813V0H167.399V71.8519ZM402.927 55.785L380.847 57.2912V0H402.927V55.785ZM424.713 54.2988L402.927 0H425.348L446.61 52.8051L424.713 54.2988ZM576.468 43.9467L616.708 0H586.135L545.137 46.0839L576.468 43.9467ZM529.744 47.134L507.324 48.6634V0H529.744V47.134ZM495.327 49.4818L473.246 50.9881V0H495.327V49.4818ZM352.759 59.2073L330.036 60.7574L309.372 0H331.963L352.759 59.2073ZM286.822 63.7053L263.012 65.3295L286.612 0H309.372L286.822 63.7053Z" fill="black"/>
</svg>
