<svg width="29" height="30" viewBox="0 0 29 30" fill="none" xmlns="http://www.w3.org/2000/svg">
<path opacity="0.8" fill-rule="evenodd" clip-rule="evenodd" d="M0 0.5H29V29.5H0V0.5ZM6.674 9.56213C6.85258 9.72309 6.94378 9.95947 6.91957 10.1986V18.8094C6.97256 19.12 6.87464 19.4373 6.65581 19.6641L4.60938 22.1464V22.4738H10.4122V22.1464L8.36572 19.6641C8.14528 19.4377 8.0413 19.1225 8.08377 18.8094V11.3625L13.1771 22.4738H13.7683L18.1431 11.3625V20.2188C18.1431 20.4552 18.1431 20.5006 17.9885 20.6552L16.415 22.1828V22.5101H24.055V22.1828L22.5361 20.6916C22.4021 20.5894 22.3355 20.4214 22.3633 20.2551V9.29844C22.3355 9.13218 22.4021 8.9642 22.5361 8.86199L24.0914 7.37079V7.04346H18.707L14.8688 16.6181L10.5031 7.04346H4.85495V7.37079L6.674 9.56213Z" fill="black"/>
</svg>
